<?xml version="1.0" encoding="UTF-8"?> <svg xmlns="http://www.w3.org/2000/svg" viewBox="0 0 601.96 579.48"><defs><style>.cls-1{fill:#221f20;}.cls-2{fill:#3a589f;}.cls-3{fill:#3a58a0;}.cls-4{fill:#3b59a0;}.cls-5{fill:#3c5aa0;}.cls-6{fill:#3b5aa0;}.cls-7{fill:#3d5ba0;}.cls-8{fill:#fff;}.cls-9{fill:#3a589e;}</style></defs><g id="INFO_02"><path class="cls-1" d="M230.07,531.29v11.39h-1.28V531.29Z"></path><path class="cls-1" d="M234.45,542.68H233.2v-8.41h1.25v1.46a4,4,0,0,1,1.1-1.16,3,3,0,0,1,1.78-.48,3.54,3.54,0,0,1,1.35.24,2.92,2.92,0,0,1,1,.69,3.11,3.11,0,0,1,.64,1.07,4.23,4.23,0,0,1,.22,1.37v5.22h-1.26v-4.92a2.71,2.71,0,0,0-.6-1.85,2.18,2.18,0,0,0-1.72-.68,2.73,2.73,0,0,0-1,.18,2.5,2.5,0,0,0-.81.54,2.56,2.56,0,0,0-.53.84,3,3,0,0,0-.18,1.07Z"></path><path class="cls-1" d="M244.91,540.29a1.32,1.32,0,0,0,.39,1.09,1.63,1.63,0,0,0,1,.3,2.93,2.93,0,0,0,.61-.06,2.58,2.58,0,0,0,.61-.23v1.07a2.91,2.91,0,0,1-.69.27,3.43,3.43,0,0,1-.82.09,3.26,3.26,0,0,1-.95-.13,1.83,1.83,0,0,1-.75-.41,2,2,0,0,1-.5-.74,3,3,0,0,1-.18-1.09v-5.08h-1.17v-1.1h1.17v-2.54h1.26v2.54h2.66v1.1h-2.66Z"></path><path class="cls-1" d="M250.63,540.15a2.86,2.86,0,0,0,.67.89,2.58,2.58,0,0,0,.91.55,2.89,2.89,0,0,0,1.06.19,3.32,3.32,0,0,0,1.5-.32,4.53,4.53,0,0,0,1.15-.87l.78.7a5.3,5.3,0,0,1-1.45,1.15,4.22,4.22,0,0,1-2,.43,4,4,0,0,1-1.62-.32,3.93,3.93,0,0,1-1.34-.89,4.19,4.19,0,0,1-.91-1.39,4.53,4.53,0,0,1-.34-1.79,4.9,4.9,0,0,1,.3-1.72,4.24,4.24,0,0,1,.84-1.39,3.86,3.86,0,0,1,1.28-.94,3.75,3.75,0,0,1,1.61-.34,3.82,3.82,0,0,1,1.66.35,3.64,3.64,0,0,1,1.24.95,4.16,4.16,0,0,1,.76,1.41,5.57,5.57,0,0,1,.26,1.75v.17a1.7,1.7,0,0,1,0,.22h-6.65A3.48,3.48,0,0,0,250.63,540.15Zm5.06-2.14a4,4,0,0,0-.24-1.09,2.79,2.79,0,0,0-.51-.91,2.53,2.53,0,0,0-.81-.63,2.45,2.45,0,0,0-1.11-.23,2.37,2.37,0,0,0-1,.22,2.52,2.52,0,0,0-.82.6,3,3,0,0,0-.58.9,3.82,3.82,0,0,0-.29,1.14Z"></path><path class="cls-1" d="M260.42,542.68h-1.25v-8.41h1.25v2.19a4.67,4.67,0,0,1,.57-1,4,4,0,0,1,.78-.75,3.32,3.32,0,0,1,1-.48,3.41,3.41,0,0,1,1.12-.15v1.35h-.09a3.34,3.34,0,0,0-1.3.25,2.84,2.84,0,0,0-1.06.73,3.3,3.3,0,0,0-.72,1.21,5,5,0,0,0-.26,1.67Z"></path><path class="cls-1" d="M273.31,540.16a4.36,4.36,0,0,1-.92,1.41,4.18,4.18,0,0,1-1.4.95,4.24,4.24,0,0,1-1.75.35,4.16,4.16,0,0,1-1.74-.35,4.49,4.49,0,0,1-1.39-.94,4.35,4.35,0,0,1-.91-1.39,4.65,4.65,0,0,1,0-3.39,4.25,4.25,0,0,1,2.3-2.36,4.47,4.47,0,0,1,1.77-.35,4.41,4.41,0,0,1,1.75.35,4.49,4.49,0,0,1,1.39.94,4.34,4.34,0,0,1,1.23,3.08A4.4,4.4,0,0,1,273.31,540.16Zm-1.19-2.95a3.15,3.15,0,0,0-.65-1.05,3.37,3.37,0,0,0-1-.71,3,3,0,0,0-1.23-.26,3.05,3.05,0,0,0-1.26.26,2.69,2.69,0,0,0-1,.69,3.33,3.33,0,0,0-.63,1,3.59,3.59,0,0,0-.23,1.28,3.43,3.43,0,0,0,.24,1.28,3.27,3.27,0,0,0,.65,1,3.1,3.1,0,0,0,1,.69,2.84,2.84,0,0,0,1.24.26,3,3,0,0,0,1.25-.25,3,3,0,0,0,1-.69,3.07,3.07,0,0,0,.63-1,3.54,3.54,0,0,0,.23-1.27A3.39,3.39,0,0,0,272.12,537.21Z"></path><path class="cls-1" d="M284.05,540.32a4,4,0,0,1-.9,1.37,3.8,3.8,0,0,1-1.28.86,3.83,3.83,0,0,1-2.57.16,3.83,3.83,0,0,1-.87-.39,3.55,3.55,0,0,1-.71-.57,5.76,5.76,0,0,1-.56-.68v4.21h-1.25v-11h1.25V536a5.54,5.54,0,0,1,.58-.72,4,4,0,0,1,.7-.59,3.87,3.87,0,0,1,.87-.41,3.59,3.59,0,0,1,1.07-.15,4,4,0,0,1,3.67,2.52,5.09,5.09,0,0,1,0,3.71Zm-1.18-3.18a3.09,3.09,0,0,0-.64-1,2.81,2.81,0,0,0-.94-.66,3,3,0,0,0-2.27,0,3.38,3.38,0,0,0-1,.66,3.2,3.2,0,0,0-.68,1,3.34,3.34,0,0,0-.25,1.32,3.44,3.44,0,0,0,.25,1.34,3.24,3.24,0,0,0,.68,1,3.16,3.16,0,0,0,1,.65,2.76,2.76,0,0,0,1.13.24,3.22,3.22,0,0,0,1.15-.22,2.88,2.88,0,0,0,.94-.63,2.93,2.93,0,0,0,.63-1,3.72,3.72,0,0,0,.24-1.37A3.56,3.56,0,0,0,282.87,537.14Z"></path><path class="cls-1" d="M287.79,540.15a3,3,0,0,0,.67.89,2.67,2.67,0,0,0,.91.55,2.93,2.93,0,0,0,1.06.19,3.29,3.29,0,0,0,1.5-.32,4.53,4.53,0,0,0,1.15-.87l.78.7a5.15,5.15,0,0,1-1.45,1.15,4.21,4.21,0,0,1-2,.43,4.05,4.05,0,0,1-1.63-.32,3.93,3.93,0,0,1-1.34-.89,4.35,4.35,0,0,1-.91-1.39,4.72,4.72,0,0,1-.34-1.79,4.9,4.9,0,0,1,.3-1.72,4.41,4.41,0,0,1,.84-1.39,4,4,0,0,1,1.28-.94,3.76,3.76,0,0,1,1.62-.34,3.85,3.85,0,0,1,1.66.35,3.6,3.6,0,0,1,1.23.95,4.18,4.18,0,0,1,.77,1.41,5.88,5.88,0,0,1,.26,1.75v.17a1.8,1.8,0,0,1,0,.22h-6.65A3.48,3.48,0,0,0,287.79,540.15Zm5.06-2.14a4.41,4.41,0,0,0-.23-1.09,3,3,0,0,0-.52-.91,2.53,2.53,0,0,0-.81-.63,2.45,2.45,0,0,0-1.11-.23,2.29,2.29,0,0,0-1,.22,2.45,2.45,0,0,0-.83.6,3,3,0,0,0-.58.9,3.82,3.82,0,0,0-.29,1.14Z"></path><path class="cls-1" d="M297.58,542.68h-1.25v-8.41h1.25v2.19a5.78,5.78,0,0,1,.57-1,4,4,0,0,1,.78-.75,3.6,3.6,0,0,1,1-.48,3.47,3.47,0,0,1,1.13-.15v1.35h-.1a3.26,3.26,0,0,0-1.29.25,2.8,2.8,0,0,0-1.07.73,3.6,3.6,0,0,0-.72,1.21,5,5,0,0,0-.26,1.67Z"></path><path class="cls-1" d="M304.2,535.43a6.7,6.7,0,0,0-1.2.45l-.37-1a9.15,9.15,0,0,1,1.41-.51,6.78,6.78,0,0,1,1.64-.19,3.8,3.8,0,0,1,2.66.86,3.29,3.29,0,0,1,.92,2.53v5.14h-1.2v-1.27a4.24,4.24,0,0,1-1.18,1,3.61,3.61,0,0,1-1.86.44,4.11,4.11,0,0,1-1.15-.17,3.27,3.27,0,0,1-1-.49,2.65,2.65,0,0,1-.71-.82,2.37,2.37,0,0,1-.27-1.16,2.63,2.63,0,0,1,.26-1.18,2.32,2.32,0,0,1,.74-.85,3.51,3.51,0,0,1,1.14-.52,5.48,5.48,0,0,1,1.45-.18,8.37,8.37,0,0,1,1.42.1,9,9,0,0,1,1.17.26v-.3a2.14,2.14,0,0,0-.66-1.71,2.68,2.68,0,0,0-1.85-.58A5.14,5.14,0,0,0,304.2,535.43Zm-.4,3.46a1.49,1.49,0,0,0-.64,1.28,1.53,1.53,0,0,0,.17.72,1.81,1.81,0,0,0,.47.53,2.21,2.21,0,0,0,.67.33,2.62,2.62,0,0,0,.8.11,3.33,3.33,0,0,0,1.1-.17,2.91,2.91,0,0,0,.89-.47,2.39,2.39,0,0,0,.6-.71,2,2,0,0,0,.22-.92v-.82l-1.08-.24a7.32,7.32,0,0,0-1.39-.11A2.94,2.94,0,0,0,303.8,538.89Z"></path><path class="cls-1" d="M320.08,540.32a4.29,4.29,0,0,1-.9,1.37,3.94,3.94,0,0,1-1.29.86,3.69,3.69,0,0,1-1.49.31,3.59,3.59,0,0,1-1.07-.15,3.72,3.72,0,0,1-.88-.39,3.55,3.55,0,0,1-.71-.57,5.76,5.76,0,0,1-.56-.68v1.61h-1.25V530.8h1.25V536a7.94,7.94,0,0,1,.58-.72,4,4,0,0,1,.71-.59,3.87,3.87,0,0,1,.87-.41,3.53,3.53,0,0,1,1.06-.15,4,4,0,0,1,1.47.29,3.88,3.88,0,0,1,1.3.86,4.16,4.16,0,0,1,.91,1.37,5.23,5.23,0,0,1,0,3.71Zm-1.18-3.18a3.26,3.26,0,0,0-.64-1,2.8,2.8,0,0,0-2.09-.88,3,3,0,0,0-1.13.23,3.34,3.34,0,0,0-1,.66,2.9,2.9,0,0,0-.68,1,3.34,3.34,0,0,0-.26,1.32,3.44,3.44,0,0,0,.26,1.34,2.94,2.94,0,0,0,.68,1,3.12,3.12,0,0,0,1,.65,2.8,2.8,0,0,0,1.13.24,3.14,3.14,0,0,0,1.15-.22,2.78,2.78,0,0,0,.94-.63,3.11,3.11,0,0,0,.64-1,3.72,3.72,0,0,0,.23-1.37A3.56,3.56,0,0,0,318.9,537.14Z"></path><path class="cls-1" d="M322.76,532.43v-1.38h1.43v1.38Zm.08,10.25v-8.41h1.26v8.41Z"></path><path class="cls-1" d="M327.12,542.68V530.8h1.25v11.88Z"></path><path class="cls-1" d="M331.32,532.43v-1.38h1.43v1.38Zm.08,10.25v-8.41h1.25v8.41Z"></path><path class="cls-1" d="M337.25,540.29a1.32,1.32,0,0,0,.39,1.09,1.64,1.64,0,0,0,1,.3,3,3,0,0,0,.61-.06,2.58,2.58,0,0,0,.61-.23v1.07a2.91,2.91,0,0,1-.69.27,3.52,3.52,0,0,1-.83.09,3.19,3.19,0,0,1-.94-.13,1.94,1.94,0,0,1-.76-.41,2,2,0,0,1-.49-.74,3,3,0,0,1-.18-1.09v-5.08h-1.17v-1.1H336v-2.54h1.25v2.54h2.67v1.1h-2.67Z"></path><path class="cls-1" d="M346.23,543a4.64,4.64,0,0,1-1.2,1.84,2.42,2.42,0,0,1-1.6.54,3.91,3.91,0,0,1-.94-.11,3.86,3.86,0,0,1-.85-.32l.43-1a2.57,2.57,0,0,0,.61.24,2.91,2.91,0,0,0,.7.07,1.39,1.39,0,0,0,1-.34,3.44,3.44,0,0,0,.77-1.24l-3.82-8.37h1.38l3.06,7,2.7-7h1.33Z"></path><path class="cls-1" d="M446.75,192.06h-1.28v-10.2h-3.82v-1.19h8.92v1.19h-3.82Z"></path><path class="cls-1" d="M452.59,192.06h-1.25v-8.41h1.25v2.19a4.67,4.67,0,0,1,.57-1,4,4,0,0,1,.78-.75,3.32,3.32,0,0,1,1-.48,3.41,3.41,0,0,1,1.12-.15v1.35h-.09a3.53,3.53,0,0,0-1.3.24,3,3,0,0,0-1.06.74,3.3,3.3,0,0,0-.72,1.21,5,5,0,0,0-.26,1.66Z"></path><path class="cls-1" d="M459.2,184.81a6.9,6.9,0,0,0-1.19.45l-.38-1a8.63,8.63,0,0,1,1.42-.51,6.72,6.72,0,0,1,1.64-.19,3.77,3.77,0,0,1,2.65.86,3.26,3.26,0,0,1,.93,2.53v5.14h-1.2v-1.27a4.39,4.39,0,0,1-1.18,1,3.67,3.67,0,0,1-1.87.43,4,4,0,0,1-1.14-.16,3.16,3.16,0,0,1-1-.49,2.61,2.61,0,0,1-.72-.83,2.33,2.33,0,0,1-.26-1.15,2.47,2.47,0,0,1,.26-1.18,2.24,2.24,0,0,1,.74-.85,3.46,3.46,0,0,1,1.13-.52,5.56,5.56,0,0,1,1.46-.18,9.63,9.63,0,0,1,1.41.09c.41.07.8.16,1.18.26v-.29a2.14,2.14,0,0,0-.66-1.71,2.7,2.7,0,0,0-1.85-.58A5.22,5.22,0,0,0,459.2,184.81Zm-.4,3.46a1.51,1.51,0,0,0-.63,1.28,1.53,1.53,0,0,0,.17.72,1.78,1.78,0,0,0,.46.53,2.46,2.46,0,0,0,.67.33,3.1,3.1,0,0,0,.81.11,3.23,3.23,0,0,0,1.09-.17,2.8,2.8,0,0,0,.89-.47,2.07,2.07,0,0,0,.6-.72,1.87,1.87,0,0,0,.22-.92v-.81c-.31-.08-.67-.17-1.08-.24a7.09,7.09,0,0,0-1.38-.12A3,3,0,0,0,458.8,188.27Z"></path><path class="cls-1" d="M468.19,192.06h-1.25v-8.41h1.25v1.46a3.92,3.92,0,0,1,1.1-1.16,3,3,0,0,1,1.78-.48,3.62,3.62,0,0,1,1.36.24,2.84,2.84,0,0,1,1,.69,3.11,3.11,0,0,1,.64,1.07,4.21,4.21,0,0,1,.22,1.36v5.23H473v-4.92a2.69,2.69,0,0,0-.6-1.85,2.15,2.15,0,0,0-1.72-.68,2.73,2.73,0,0,0-1,.18,2.5,2.5,0,0,0-.81.54,2.39,2.39,0,0,0-.52.84,2.83,2.83,0,0,0-.19,1.07Z"></path><path class="cls-1" d="M482.49,190.76a2.42,2.42,0,0,1-.63.79,2.92,2.92,0,0,1-.94.5,4.1,4.1,0,0,1-1.18.17,5.24,5.24,0,0,1-1.84-.34,5.53,5.53,0,0,1-1.64-.9l.63-.89a5.73,5.73,0,0,0,1.42.79,4.14,4.14,0,0,0,1.49.28,2,2,0,0,0,1.25-.36,1.13,1.13,0,0,0,.49-1v0a.88.88,0,0,0-.17-.53,1.51,1.51,0,0,0-.46-.4,4.33,4.33,0,0,0-.68-.3c-.25-.09-.52-.17-.79-.25s-.65-.2-1-.31a4.32,4.32,0,0,1-.89-.43,2.27,2.27,0,0,1-.66-.65,1.85,1.85,0,0,1-.25-1v0a2.31,2.31,0,0,1,.21-1,2.2,2.2,0,0,1,.6-.76,2.65,2.65,0,0,1,.91-.49,3.78,3.78,0,0,1,1.14-.17,5.11,5.11,0,0,1,1.58.25,6,6,0,0,1,1.45.68l-.57.94a5.35,5.35,0,0,0-1.23-.59,3.8,3.8,0,0,0-1.26-.22,1.83,1.83,0,0,0-1.19.35,1.06,1.06,0,0,0-.43.87v0a.8.8,0,0,0,.17.51,1.42,1.42,0,0,0,.48.38,5.08,5.08,0,0,0,.7.3l.81.26c.32.1.65.2,1,.32a3.61,3.61,0,0,1,.87.46,2.05,2.05,0,0,1,.62.66,1.82,1.82,0,0,1,.24,1v0A2.27,2.27,0,0,1,482.49,190.76Z"></path><path class="cls-1" d="M493.2,189.7a4.29,4.29,0,0,1-.9,1.37,3.74,3.74,0,0,1-1.29.86,3.8,3.8,0,0,1-1.48.3,3.71,3.71,0,0,1-1.08-.14,4.12,4.12,0,0,1-.88-.39,4.25,4.25,0,0,1-.7-.57,5.13,5.13,0,0,1-.56-.69v4.22h-1.26v-11h1.26v1.69a6.43,6.43,0,0,1,.57-.72,4,4,0,0,1,.71-.59,3.87,3.87,0,0,1,.87-.41,3.59,3.59,0,0,1,1.07-.15,4,4,0,0,1,1.47.29,4.08,4.08,0,0,1,1.29.85,4.31,4.31,0,0,1,.91,1.38,4.69,4.69,0,0,1,.34,1.85A4.75,4.75,0,0,1,493.2,189.7ZM492,186.52a3,3,0,0,0-.64-1,2.68,2.68,0,0,0-.94-.66,2.93,2.93,0,0,0-1.14-.22,2.75,2.75,0,0,0-1.13.23,3.38,3.38,0,0,0-1,.66,3.2,3.2,0,0,0-.68,1,3.34,3.34,0,0,0-.25,1.32,3.44,3.44,0,0,0,.25,1.34,3.24,3.24,0,0,0,.68,1,3.35,3.35,0,0,0,1,.65,2.76,2.76,0,0,0,1.13.24,3.22,3.22,0,0,0,1.15-.22,2.88,2.88,0,0,0,.94-.63,3.09,3.09,0,0,0,.63-1,3.72,3.72,0,0,0,.24-1.37A3.56,3.56,0,0,0,492,186.52Z"></path><path class="cls-1" d="M497.54,184.81a6.7,6.7,0,0,0-1.2.45l-.37-1a8.53,8.53,0,0,1,1.41-.51,6.8,6.8,0,0,1,1.65-.19,3.79,3.79,0,0,1,2.65.86,3.29,3.29,0,0,1,.92,2.53v5.14h-1.2v-1.27a4.24,4.24,0,0,1-1.18,1,3.61,3.61,0,0,1-1.86.43,4.09,4.09,0,0,1-1.15-.16,3.27,3.27,0,0,1-1-.49,2.7,2.7,0,0,1-.71-.83,2.33,2.33,0,0,1-.27-1.15,2.6,2.6,0,0,1,.26-1.18,2.24,2.24,0,0,1,.74-.85,3.51,3.51,0,0,1,1.14-.52,5.48,5.48,0,0,1,1.45-.18,9.68,9.68,0,0,1,1.42.09c.4.07.79.16,1.17.26v-.29a2.14,2.14,0,0,0-.66-1.71,2.68,2.68,0,0,0-1.85-.58A5.14,5.14,0,0,0,497.54,184.81Zm-.4,3.46a1.49,1.49,0,0,0-.64,1.28,1.53,1.53,0,0,0,.17.72,1.81,1.81,0,0,0,.47.53,2.21,2.21,0,0,0,.67.33,3,3,0,0,0,.8.11,3.29,3.29,0,0,0,1.1-.17,2.91,2.91,0,0,0,.89-.47,2.31,2.31,0,0,0,.6-.72,2,2,0,0,0,.22-.92v-.81c-.32-.08-.68-.17-1.08-.24a7.27,7.27,0,0,0-1.39-.12A2.93,2.93,0,0,0,497.14,188.27Z"></path><path class="cls-1" d="M506.52,192.06h-1.25v-8.41h1.25v2.19a4.67,4.67,0,0,1,.57-1,4,4,0,0,1,.78-.75,3.46,3.46,0,0,1,1-.48,3.41,3.41,0,0,1,1.12-.15v1.35h-.09a3.53,3.53,0,0,0-1.3.24,3,3,0,0,0-1.06.74,3.45,3.45,0,0,0-.72,1.21,5,5,0,0,0-.26,1.66Z"></path><path class="cls-1" d="M512.59,189.53a2.86,2.86,0,0,0,.67.89,2.74,2.74,0,0,0,.91.55,2.87,2.87,0,0,0,1.05.19,3.33,3.33,0,0,0,1.51-.32,4.53,4.53,0,0,0,1.15-.87l.78.7a5.3,5.3,0,0,1-1.45,1.15,4.25,4.25,0,0,1-2,.43,4.18,4.18,0,0,1-1.62-.32,4.08,4.08,0,0,1-1.34-.89,4.3,4.3,0,0,1-.91-1.39,4.53,4.53,0,0,1-.34-1.79,4.9,4.9,0,0,1,.3-1.72,4.39,4.39,0,0,1,.84-1.4,4,4,0,0,1,1.27-.93,3.83,3.83,0,0,1,1.62-.34,3.71,3.71,0,0,1,1.66.35,3.64,3.64,0,0,1,1.24,1,4.16,4.16,0,0,1,.76,1.41,5.55,5.55,0,0,1,.26,1.74v.18a1.48,1.48,0,0,1,0,.21h-6.66A3.77,3.77,0,0,0,512.59,189.53Zm5.06-2.14a4,4,0,0,0-.24-1.09,2.79,2.79,0,0,0-.51-.91,2.64,2.64,0,0,0-.81-.63,2.69,2.69,0,0,0-2.13,0,2.59,2.59,0,0,0-.82.61,3.19,3.19,0,0,0-.59.9,4.15,4.15,0,0,0-.29,1.14Z"></path><path class="cls-1" d="M522.38,192.06h-1.25v-8.41h1.25v1.46a3.83,3.83,0,0,1,1.11-1.16,3,3,0,0,1,1.77-.48,3.62,3.62,0,0,1,1.36.24,3,3,0,0,1,1,.69,3.26,3.26,0,0,1,.63,1.07,4,4,0,0,1,.22,1.36v5.23h-1.25v-4.92a2.69,2.69,0,0,0-.6-1.85,2.18,2.18,0,0,0-1.73-.68,2.73,2.73,0,0,0-1,.18,2.36,2.36,0,0,0-.8.54,2.27,2.27,0,0,0-.53.84,2.83,2.83,0,0,0-.19,1.07Z"></path><path class="cls-1" d="M536.93,191.79a3.93,3.93,0,0,1-2,.46,4.26,4.26,0,0,1-1.72-.35,4.4,4.4,0,0,1-1.37-.94,4.5,4.5,0,0,1-.9-1.39,4.65,4.65,0,0,1,0-3.39,4.48,4.48,0,0,1,.9-1.41,4.26,4.26,0,0,1,1.37-1,4.1,4.1,0,0,1,1.72-.35,5.22,5.22,0,0,1,1.09.11,4.08,4.08,0,0,1,.89.32,3.68,3.68,0,0,1,.75.48,5.85,5.85,0,0,1,.63.58l-.83.88a6.15,6.15,0,0,0-1.09-.89,2.71,2.71,0,0,0-1.46-.38,2.83,2.83,0,0,0-1.19.26,2.87,2.87,0,0,0-1,.69,3.33,3.33,0,0,0-.63,1,3.58,3.58,0,0,0-.23,1.27,3.44,3.44,0,0,0,.24,1.29,3,3,0,0,0,.65,1,2.94,2.94,0,0,0,1,.7,3,3,0,0,0,1.23.25,2.85,2.85,0,0,0,1.44-.36,4.58,4.58,0,0,0,1.13-.89l.8.75A5.61,5.61,0,0,1,536.93,191.79Z"></path><path class="cls-1" d="M544.45,192.33a4.75,4.75,0,0,1-1.19,1.84,2.47,2.47,0,0,1-1.61.54,3.91,3.91,0,0,1-.94-.11,4.44,4.44,0,0,1-.85-.32l.43-1a2.57,2.57,0,0,0,.61.24,2.91,2.91,0,0,0,.7.07,1.39,1.39,0,0,0,1-.34,3.44,3.44,0,0,0,.77-1.24l-3.82-8.37h1.38l3.06,7,2.7-7H548Z"></path><path class="cls-2" d="M439.73,152.39a23.77,23.77,0,1,1,23.77-23.77A23.8,23.8,0,0,1,439.73,152.39Zm0-41.78a18,18,0,1,0,18,18A18,18,0,0,0,439.73,110.61Z"></path><path class="cls-2" d="M456.77,170.23a22.73,22.73,0,0,1-6.11-1.35l1.33-3.6a18.79,18.79,0,0,0,5.08,1.13Zm6.24-.35-.73-3.76a19.13,19.13,0,0,0,4.92-1.7l1.73,3.42A22.57,22.57,0,0,1,463,169.88Zm-17.87-4a22.85,22.85,0,0,1-4.49-4.35l3-2.37a18.87,18.87,0,0,0,3.74,3.62Zm28.93-1.65-2.6-2.82a18.82,18.82,0,0,0,3.31-4l3.27,2A22.82,22.82,0,0,1,474.07,164.26Zm-36.57-8.11a22.69,22.69,0,0,1-1.56-6.07l3.82-.43a18.24,18.24,0,0,0,1.29,5Zm43.06-2.46-3.69-1a19.2,19.2,0,0,0,.23-9.44l3.74-.86a23.35,23.35,0,0,1,.58,5.14A22.67,22.67,0,0,1,480.56,153.69Zm-40.68-9.25-3.79-.61a23,23,0,0,1,1.85-6l3.47,1.63A18.84,18.84,0,0,0,439.88,144.44Zm35.36-6.08a19.26,19.26,0,0,0-3.11-4.18l2.73-2.69a23.18,23.18,0,0,1,3.74,5Zm-31-3.26-2.91-2.51a23.07,23.07,0,0,1,4.7-4.13l2.12,3.2A18.86,18.86,0,0,0,444.25,135.1ZM468,131a18.93,18.93,0,0,0-4.84-1.94l.92-3.72a22.84,22.84,0,0,1,5.82,2.32Zm-15.15-1.6-1.16-3.65a22.62,22.62,0,0,1,6.17-1.06l.12,3.83A19.36,19.36,0,0,0,452.85,129.41Z"></path><path class="cls-1" d="M25.71,180.67v11.39H24.43V180.67Z"></path><path class="cls-1" d="M36,184.49a3.28,3.28,0,0,1,.64-.53,2.76,2.76,0,0,1,.8-.36,3.46,3.46,0,0,1,1-.13,3,3,0,0,1,2.3.9,3.54,3.54,0,0,1,.83,2.48v5.21H40.33v-4.92a2.8,2.8,0,0,0-.57-1.88,2.05,2.05,0,0,0-1.6-.65,2.25,2.25,0,0,0-.9.17,2.06,2.06,0,0,0-.74.5,2.41,2.41,0,0,0-.5.82,3,3,0,0,0-.19,1.11v4.85H34.59v-4.95a2.75,2.75,0,0,0-.57-1.85,2,2,0,0,0-1.59-.65,2.18,2.18,0,0,0-.93.19,2.35,2.35,0,0,0-.74.55,2.69,2.69,0,0,0-.49.84,3,3,0,0,0-.18,1.07v4.8H28.84v-8.41h1.25v1.41a6.38,6.38,0,0,1,.46-.6,2.56,2.56,0,0,1,.58-.51,2.59,2.59,0,0,1,.73-.35,3,3,0,0,1,.94-.13,2.85,2.85,0,0,1,1.7.48,3.09,3.09,0,0,1,1,1.19A7.79,7.79,0,0,1,36,184.49Z"></path><path class="cls-1" d="M51.48,184.49a3.35,3.35,0,0,1,.65-.53,2.54,2.54,0,0,1,.8-.36,3.46,3.46,0,0,1,1-.13,3,3,0,0,1,2.29.9,3.49,3.49,0,0,1,.83,2.48v5.21H55.8v-4.92a2.75,2.75,0,0,0-.58-1.88,2,2,0,0,0-1.6-.65,2.24,2.24,0,0,0-.89.17,2.06,2.06,0,0,0-.74.5,2.59,2.59,0,0,0-.51.82,3.23,3.23,0,0,0-.18,1.11v4.85H50.06v-4.95a2.7,2.7,0,0,0-.58-1.85,2,2,0,0,0-1.58-.65,2.18,2.18,0,0,0-.93.19,2.35,2.35,0,0,0-.74.55,2.71,2.71,0,0,0-.5.84,3,3,0,0,0-.18,1.07v4.8H44.3v-8.41h1.25v1.41c.15-.2.3-.41.47-.6a2.56,2.56,0,0,1,.58-.51,2.47,2.47,0,0,1,.73-.35,3,3,0,0,1,.94-.13A2.82,2.82,0,0,1,50,184a3.12,3.12,0,0,1,1,1.19A6.05,6.05,0,0,1,51.48,184.49Z"></path><path class="cls-1" d="M65.74,183.65H67v8.41H65.74v-1.47a3.83,3.83,0,0,1-1.11,1.16,3,3,0,0,1-1.77.48A3.62,3.62,0,0,1,61.5,192a2.84,2.84,0,0,1-1-.69,3.16,3.16,0,0,1-.63-1.07,3.92,3.92,0,0,1-.22-1.36v-5.22h1.25v4.91a2.69,2.69,0,0,0,.6,1.85,2.17,2.17,0,0,0,1.73.69,2.74,2.74,0,0,0,1-.19,2.18,2.18,0,0,0,.79-.54,2.41,2.41,0,0,0,.53-.84,2.83,2.83,0,0,0,.2-1.07Z"></path><path class="cls-1" d="M71.48,189.66a1.31,1.31,0,0,0,.39,1.09,1.58,1.58,0,0,0,1,.31,3,3,0,0,0,.61-.06,3.36,3.36,0,0,0,.61-.23v1.07a2.82,2.82,0,0,1-.7.27,3.37,3.37,0,0,1-.82.09,3.19,3.19,0,0,1-.94-.13,1.87,1.87,0,0,1-.76-.41,2,2,0,0,1-.49-.74,3,3,0,0,1-.18-1.09v-5.08H69.06v-1.1h1.17v-2.54h1.25v2.54h2.67v1.1H71.48Z"></path><path class="cls-1" d="M78,184.81a6.9,6.9,0,0,0-1.19.45l-.38-1a8.63,8.63,0,0,1,1.42-.51,6.72,6.72,0,0,1,1.64-.19,3.77,3.77,0,0,1,2.65.86,3.26,3.26,0,0,1,.93,2.53v5.14h-1.2v-1.27a4.39,4.39,0,0,1-1.18,1,3.67,3.67,0,0,1-1.87.43,4,4,0,0,1-1.14-.16,3.16,3.16,0,0,1-1-.49,2.61,2.61,0,0,1-.72-.83,2.33,2.33,0,0,1-.27-1.15,2.6,2.6,0,0,1,.26-1.18,2.43,2.43,0,0,1,.74-.85,3.51,3.51,0,0,1,1.14-.52,5.56,5.56,0,0,1,1.46-.18,9.63,9.63,0,0,1,1.41.09c.41.07.8.16,1.18.26v-.29a2.14,2.14,0,0,0-.66-1.71,2.7,2.7,0,0,0-1.85-.58A5.22,5.22,0,0,0,78,184.81Zm-.4,3.46a1.51,1.51,0,0,0-.63,1.28,1.53,1.53,0,0,0,.17.72,1.78,1.78,0,0,0,.46.53,2.46,2.46,0,0,0,.67.33,3.1,3.1,0,0,0,.81.11,3.23,3.23,0,0,0,1.09-.17,2.8,2.8,0,0,0,.89-.47,2.07,2.07,0,0,0,.6-.72,1.87,1.87,0,0,0,.22-.92v-.81c-.31-.08-.67-.17-1.08-.24a7.09,7.09,0,0,0-1.38-.12A3,3,0,0,0,77.64,188.27Z"></path><path class="cls-1" d="M93.92,189.7a4,4,0,0,1-.9,1.37,3.8,3.8,0,0,1-1.28.86,3.89,3.89,0,0,1-1.49.3,3.6,3.6,0,0,1-1.07-.14,3.72,3.72,0,0,1-.88-.39,3.94,3.94,0,0,1-.71-.57,5.13,5.13,0,0,1-.56-.69v1.62H85.78V180.18H87v5.16a5.54,5.54,0,0,1,.58-.72,3.59,3.59,0,0,1,.7-.59,3.87,3.87,0,0,1,.87-.41,3.59,3.59,0,0,1,1.07-.15,4,4,0,0,1,1.47.29,4.08,4.08,0,0,1,1.29.85,4.15,4.15,0,0,1,.91,1.38,4.69,4.69,0,0,1,.35,1.85A4.74,4.74,0,0,1,93.92,189.7Zm-1.18-3.18a3,3,0,0,0-.64-1,2.68,2.68,0,0,0-.94-.66,2.93,2.93,0,0,0-1.14-.22,2.75,2.75,0,0,0-1.13.23,3.38,3.38,0,0,0-1,.66,3.2,3.2,0,0,0-.68,1,3.34,3.34,0,0,0-.25,1.32,3.44,3.44,0,0,0,.25,1.34,3.24,3.24,0,0,0,.68,1,3.35,3.35,0,0,0,1,.65,2.76,2.76,0,0,0,1.13.24,3.22,3.22,0,0,0,1.15-.22,2.88,2.88,0,0,0,.94-.63,2.93,2.93,0,0,0,.63-1,3.72,3.72,0,0,0,.24-1.37A3.56,3.56,0,0,0,92.74,186.52Z"></path><path class="cls-1" d="M96.61,181.81v-1.38H98v1.38Zm.08,10.25v-8.41h1.25v8.41Z"></path><path class="cls-1" d="M101,192.06V180.18h1.25v11.88Z"></path><path class="cls-1" d="M105.16,181.81v-1.38h1.43v1.38Zm.08,10.25v-8.41h1.26v8.41Z"></path><path class="cls-1" d="M111.1,189.66a1.31,1.31,0,0,0,.39,1.09,1.57,1.57,0,0,0,1,.31,2.93,2.93,0,0,0,.61-.06,2.89,2.89,0,0,0,.61-.23v1.07a2.61,2.61,0,0,1-.69.27,3.43,3.43,0,0,1-.82.09,3.14,3.14,0,0,1-.94-.13,1.81,1.81,0,0,1-.76-.41,2,2,0,0,1-.5-.74,3.24,3.24,0,0,1-.17-1.09v-5.08h-1.17v-1.1h1.17v-2.54h1.25v2.54h2.67v1.1H111.1Z"></path><path class="cls-1" d="M120.08,192.33a4.64,4.64,0,0,1-1.2,1.84,2.44,2.44,0,0,1-1.6.54,4,4,0,0,1-1-.11,4.13,4.13,0,0,1-.84-.32l.42-1a2.75,2.75,0,0,0,.61.24,3,3,0,0,0,.71.07,1.39,1.39,0,0,0,1-.34A3.44,3.44,0,0,0,119,192l-3.82-8.37h1.38l3.06,7,2.7-7h1.34Z"></path><path class="cls-1" d="M444.65,465.34a3.43,3.43,0,0,1-1,1.17,4.26,4.26,0,0,1-1.43.71,6,6,0,0,1-1.72.24h-2.77v4h-1.28V460.09h4.26a5.69,5.69,0,0,1,1.75.25,4.15,4.15,0,0,1,1.35.72,3,3,0,0,1,.86,1.13,3.72,3.72,0,0,1,.3,1.52A3.53,3.53,0,0,1,444.65,465.34Zm-1.76-3.44a3.64,3.64,0,0,0-2.23-.63h-2.89v5h2.82a4.61,4.61,0,0,0,1.28-.17,2.88,2.88,0,0,0,1-.52,2.21,2.21,0,0,0,.64-.79,2.51,2.51,0,0,0,.22-1A2.18,2.18,0,0,0,442.89,461.9Z"></path><path class="cls-1" d="M448.39,471.47h-1.25v-8.41h1.25v2.2a5.07,5.07,0,0,1,.57-1,4.31,4.31,0,0,1,.78-.76,3.6,3.6,0,0,1,1-.48,3.73,3.73,0,0,1,1.13-.14v1.35h-.1a3.53,3.53,0,0,0-1.3.24,3,3,0,0,0-1.06.73,3.7,3.7,0,0,0-.72,1.21,5,5,0,0,0-.26,1.67Z"></path><path class="cls-1" d="M461.28,469a4.31,4.31,0,0,1-2.31,2.36,4.49,4.49,0,0,1-1.76.35,4.33,4.33,0,0,1-1.74-.35,4.47,4.47,0,0,1-1.38-.95,4,4,0,0,1-.91-1.39,4.35,4.35,0,0,1-.33-1.69,4.48,4.48,0,0,1,.33-1.7,4.33,4.33,0,0,1,2.3-2.36,4.42,4.42,0,0,1,4.9.95,4.24,4.24,0,0,1,.91,1.39,4.35,4.35,0,0,1,.33,1.69A4.27,4.27,0,0,1,461.28,469Zm-1.18-3a3.22,3.22,0,0,0-1.65-1.75,3.17,3.17,0,0,0-2.49,0,2.75,2.75,0,0,0-1,.7,3.22,3.22,0,0,0-.63,1,3.53,3.53,0,0,0-.22,1.27,3.38,3.38,0,0,0,.23,1.28,3.09,3.09,0,0,0,1.64,1.74,3,3,0,0,0,3.46-.68,3.17,3.17,0,0,0,.63-1,3.38,3.38,0,0,0,.23-1.28A3.63,3.63,0,0,0,460.1,466Z"></path><path class="cls-1" d="M471.58,471.8a3.36,3.36,0,0,1-.86,1.27,3.77,3.77,0,0,1-1.35.78,5.77,5.77,0,0,1-1.77.26,6.65,6.65,0,0,1-2-.3,6.3,6.3,0,0,1-1.81-.87l.57-1a6.23,6.23,0,0,0,1.53.8,5.28,5.28,0,0,0,1.71.27,3.17,3.17,0,0,0,2.22-.75,2.86,2.86,0,0,0,.83-2.24v-1a5.38,5.38,0,0,1-1.35,1.25,3.46,3.46,0,0,1-2,.52,4.08,4.08,0,0,1-1.47-.27,3.84,3.84,0,0,1-2.15-2,4,4,0,0,1-.33-1.66,4.08,4.08,0,0,1,.33-1.67,3.94,3.94,0,0,1,.89-1.25,4.07,4.07,0,0,1,3.81-.93,4.58,4.58,0,0,1,.9.37,3.76,3.76,0,0,1,.72.54,5.17,5.17,0,0,1,.59.65v-1.52h1.25V470A4.9,4.9,0,0,1,471.58,471.8Zm-1.16-6.13a3,3,0,0,0-.7-.9,3.1,3.1,0,0,0-1-.58,3.43,3.43,0,0,0-1.15-.2,3.19,3.19,0,0,0-1.13.2,2.59,2.59,0,0,0-.93.57,2.52,2.52,0,0,0-.63.9,3,3,0,0,0-.23,1.18,2.86,2.86,0,0,0,.24,1.18,3.08,3.08,0,0,0,.63.91,2.8,2.8,0,0,0,.93.58,3,3,0,0,0,1.12.21,3.21,3.21,0,0,0,1.15-.21,3.08,3.08,0,0,0,1-.57,3,3,0,0,0,.7-.91,2.66,2.66,0,0,0,.26-1.18A2.72,2.72,0,0,0,470.42,465.67Z"></path><path class="cls-1" d="M475.93,471.47h-1.25v-8.41h1.25v2.2a4.2,4.2,0,0,1,.57-1,4.31,4.31,0,0,1,.78-.76,3.32,3.32,0,0,1,1-.48,3.7,3.7,0,0,1,1.12-.14v1.35h-.1a3.52,3.52,0,0,0-1.29.24,3,3,0,0,0-1.07.73,3.52,3.52,0,0,0-.71,1.21,5,5,0,0,0-.26,1.67Z"></path><path class="cls-1" d="M482.54,464.23a7.89,7.89,0,0,0-1.2.44l-.37-1a7.8,7.8,0,0,1,1.42-.51A6.21,6.21,0,0,1,484,463a3.77,3.77,0,0,1,2.65.85,3.28,3.28,0,0,1,.93,2.53v5.14H486.4V470.2a4,4,0,0,1-1.18,1,3.51,3.51,0,0,1-1.86.44,4,4,0,0,1-1.14-.16,3.08,3.08,0,0,1-1-.5,2.47,2.47,0,0,1-.72-.82,2.33,2.33,0,0,1-.27-1.15,2.6,2.6,0,0,1,.26-1.18,2.45,2.45,0,0,1,.74-.86,3.74,3.74,0,0,1,1.14-.52,5.56,5.56,0,0,1,1.46-.18,9.51,9.51,0,0,1,1.41.1,11,11,0,0,1,1.17.26v-.29a2.17,2.17,0,0,0-.66-1.72,2.7,2.7,0,0,0-1.84-.57A4.82,4.82,0,0,0,482.54,464.23Zm-.4,3.45a1.54,1.54,0,0,0-.63,1.29,1.36,1.36,0,0,0,.17.71,1.56,1.56,0,0,0,.46.53,2.12,2.12,0,0,0,.67.34,3,3,0,0,0,.81.11,3.55,3.55,0,0,0,1.09-.17,3,3,0,0,0,.89-.47,2.31,2.31,0,0,0,.6-.72,1.9,1.9,0,0,0,.22-.92v-.81c-.31-.09-.67-.17-1.08-.25a8.12,8.12,0,0,0-1.38-.11A3,3,0,0,0,482.14,467.68Z"></path><path class="cls-1" d="M497.45,463.91a3.06,3.06,0,0,1,.65-.54,3.25,3.25,0,0,1,.8-.36,3.85,3.85,0,0,1,1-.13,3,3,0,0,1,2.3.91,3.54,3.54,0,0,1,.83,2.48v5.2h-1.26v-4.91a2.8,2.8,0,0,0-.57-1.88,2,2,0,0,0-1.61-.66,2.43,2.43,0,0,0-.89.17,2.23,2.23,0,0,0-.74.51,2.49,2.49,0,0,0-.51.82,3.15,3.15,0,0,0-.18,1.11v4.84H496v-4.94a2.7,2.7,0,0,0-.58-1.85,2,2,0,0,0-1.58-.66,2.21,2.21,0,0,0-1.67.75,2.51,2.51,0,0,0-.49.84,3,3,0,0,0-.18,1.06v4.8h-1.26v-8.41h1.26v1.42a5.3,5.3,0,0,1,.46-.6,2.88,2.88,0,0,1,.58-.52,3.09,3.09,0,0,1,.73-.35,3.28,3.28,0,0,1,.94-.13,2.86,2.86,0,0,1,1.69.48,3.07,3.07,0,0,1,1,1.2A5.2,5.2,0,0,1,497.45,463.91Z"></path><path class="cls-1" d="M512.92,463.91a3.28,3.28,0,0,1,.64-.54,3.32,3.32,0,0,1,.81-.36,3.85,3.85,0,0,1,1-.13,3,3,0,0,1,2.29.91,3.49,3.49,0,0,1,.83,2.48v5.2h-1.25v-4.91a2.75,2.75,0,0,0-.58-1.88,2,2,0,0,0-1.6-.66,2.43,2.43,0,0,0-.89.17,2.13,2.13,0,0,0-.74.51,2.33,2.33,0,0,0-.51.82,3.14,3.14,0,0,0-.19,1.11v4.84H511.5v-4.94a2.7,2.7,0,0,0-.58-1.85,2,2,0,0,0-1.58-.66,2.21,2.21,0,0,0-1.67.75,2.71,2.71,0,0,0-.5.84,3,3,0,0,0-.18,1.06v4.8h-1.25v-8.41H507v1.42a5.39,5.39,0,0,1,.47-.6,2.82,2.82,0,0,1,.57-.52,3.16,3.16,0,0,1,.74-.35,3.28,3.28,0,0,1,.94-.13,2.89,2.89,0,0,1,1.69.48,3.16,3.16,0,0,1,1,1.2A5.2,5.2,0,0,1,512.92,463.91Z"></path><path class="cls-1" d="M522.89,464.23a7.41,7.41,0,0,0-1.19.44l-.38-1a7.8,7.8,0,0,1,1.42-.51,6.21,6.21,0,0,1,1.64-.19,3.77,3.77,0,0,1,2.65.85,3.28,3.28,0,0,1,.93,2.53v5.14h-1.21V470.2a4,4,0,0,1-1.18,1,3.51,3.51,0,0,1-1.86.44,4,4,0,0,1-1.14-.16,3.18,3.18,0,0,1-1-.5,2.47,2.47,0,0,1-.72-.82,2.33,2.33,0,0,1-.27-1.15,2.6,2.6,0,0,1,.26-1.18,2.45,2.45,0,0,1,.74-.86,3.74,3.74,0,0,1,1.14-.52,5.56,5.56,0,0,1,1.46-.18,9.51,9.51,0,0,1,1.41.1,11,11,0,0,1,1.17.26v-.29a2.17,2.17,0,0,0-.66-1.72,2.7,2.7,0,0,0-1.84-.57A4.82,4.82,0,0,0,522.89,464.23Zm-.4,3.45a1.54,1.54,0,0,0-.63,1.29,1.36,1.36,0,0,0,.17.71,1.56,1.56,0,0,0,.46.53,2.12,2.12,0,0,0,.67.34,3,3,0,0,0,.81.11,3.55,3.55,0,0,0,1.09-.17A3,3,0,0,0,526,470a2.07,2.07,0,0,0,.6-.72,1.9,1.9,0,0,0,.22-.92v-.81c-.31-.09-.67-.17-1.08-.25a8.12,8.12,0,0,0-1.38-.11A3,3,0,0,0,522.49,467.68Z"></path><path class="cls-1" d="M538.77,469.11a4.18,4.18,0,0,1-.9,1.38,4,4,0,0,1-1.28.86,3.89,3.89,0,0,1-1.49.3,4.09,4.09,0,0,1-1.08-.14,3.46,3.46,0,0,1-.87-.4,3.89,3.89,0,0,1-.71-.56,5.13,5.13,0,0,1-.56-.69v1.61h-1.26V459.6h1.26v5.16a6.43,6.43,0,0,1,.57-.72,3.59,3.59,0,0,1,.71-.59A3.48,3.48,0,0,1,534,463a3.59,3.59,0,0,1,1.07-.16,3.79,3.79,0,0,1,1.47.3,3.91,3.91,0,0,1,1.29.85,4,4,0,0,1,.91,1.38,5.2,5.2,0,0,1,0,3.7Zm-1.18-3.18a3,3,0,0,0-.64-1,2.68,2.68,0,0,0-.94-.66,2.94,2.94,0,0,0-1.14-.23,2.76,2.76,0,0,0-1.13.24,3.16,3.16,0,0,0-1,.65,3.2,3.2,0,0,0-.68,1,3.66,3.66,0,0,0,0,2.66,3.14,3.14,0,0,0,.68,1,3.38,3.38,0,0,0,1,.66,2.93,2.93,0,0,0,1.13.23,3,3,0,0,0,1.15-.22,2.6,2.6,0,0,0,.94-.63,2.89,2.89,0,0,0,.63-1,3.66,3.66,0,0,0,.24-1.36A3.61,3.61,0,0,0,537.59,465.93Z"></path><path class="cls-1" d="M541.46,461.23v-1.39h1.43v1.39Zm.08,10.24v-8.41h1.25v8.41Z"></path><path class="cls-1" d="M545.82,471.47V459.6h1.25v11.87Z"></path><path class="cls-1" d="M550,461.23v-1.39h1.43v1.39Zm.08,10.24v-8.41h1.25v8.41Z"></path><path class="cls-1" d="M556,469.08a1.31,1.31,0,0,0,.39,1.09,1.57,1.57,0,0,0,1,.31,2.93,2.93,0,0,0,.61-.06,3.11,3.11,0,0,0,.61-.23v1.07a2.91,2.91,0,0,1-.69.27,3.43,3.43,0,0,1-.82.09,3.14,3.14,0,0,1-.94-.13,1.94,1.94,0,0,1-.76-.42,1.9,1.9,0,0,1-.5-.74,2.93,2.93,0,0,1-.18-1.09v-5.07h-1.17v-1.11h1.17v-2.53H556v2.53h2.66v1.11H556Z"></path><path class="cls-1" d="M564.92,471.75a4.53,4.53,0,0,1-1.19,1.84,2.49,2.49,0,0,1-1.6.53,4,4,0,0,1-1-.1,4.13,4.13,0,0,1-.84-.32l.42-1a2.29,2.29,0,0,0,.61.23,3,3,0,0,0,.71.08,1.44,1.44,0,0,0,1-.34,3.44,3.44,0,0,0,.76-1.24L560,463.06h1.38l3.06,7,2.7-7h1.33Z"></path><path class="cls-1" d="M57.63,456.84a1.5,1.5,0,0,0,.47.59,3.55,3.55,0,0,0,.94.49,10.72,10.72,0,0,0,1.55.42,6.63,6.63,0,0,1,2.8,1.17,2.53,2.53,0,0,1,.91,2.07,3.05,3.05,0,0,1-.29,1.33,2.9,2.9,0,0,1-.8,1,3.65,3.65,0,0,1-1.22.65,5.2,5.2,0,0,1-1.56.23,6.91,6.91,0,0,1-2.5-.44A7.26,7.26,0,0,1,55.77,463l.8-.94a6.66,6.66,0,0,0,1.81,1.21,5.06,5.06,0,0,0,2.09.4,2.93,2.93,0,0,0,1.85-.54,1.71,1.71,0,0,0,.69-1.41,1.83,1.83,0,0,0-.13-.73,1.6,1.6,0,0,0-.45-.58,3.33,3.33,0,0,0-.91-.47,11.86,11.86,0,0,0-1.48-.41,10.94,10.94,0,0,1-1.7-.49,4.26,4.26,0,0,1-1.2-.66,2.48,2.48,0,0,1-.7-.92,3.07,3.07,0,0,1-.23-1.23,2.91,2.91,0,0,1,.28-1.26,2.74,2.74,0,0,1,.78-1,3.6,3.6,0,0,1,1.19-.65,4.44,4.44,0,0,1,1.49-.24,6.3,6.3,0,0,1,2.19.34,6.71,6.71,0,0,1,1.82,1l-.75,1a5.81,5.81,0,0,0-1.6-.94,4.81,4.81,0,0,0-1.69-.29,3.45,3.45,0,0,0-1,.14,2.38,2.38,0,0,0-.76.4,1.6,1.6,0,0,0-.49.58,1.66,1.66,0,0,0-.17.73A1.92,1.92,0,0,0,57.63,456.84Z"></path><path class="cls-1" d="M67.79,462.13a3,3,0,0,0,.67.89,2.67,2.67,0,0,0,.91.55,2.93,2.93,0,0,0,1.06.19,3.29,3.29,0,0,0,1.5-.32,4.53,4.53,0,0,0,1.15-.87l.78.7a5.15,5.15,0,0,1-1.45,1.15,4.21,4.21,0,0,1-2,.43,4.05,4.05,0,0,1-1.63-.32,3.93,3.93,0,0,1-1.34-.89,4.35,4.35,0,0,1-.91-1.39,4.72,4.72,0,0,1-.34-1.79,4.9,4.9,0,0,1,.3-1.72,4.41,4.41,0,0,1,.84-1.39,4,4,0,0,1,1.28-.94,3.76,3.76,0,0,1,1.62-.34,3.85,3.85,0,0,1,1.66.35,3.6,3.6,0,0,1,1.23.95,4.18,4.18,0,0,1,.77,1.41,5.88,5.88,0,0,1,.26,1.75v.17a1.8,1.8,0,0,1,0,.22H67.47A3.48,3.48,0,0,0,67.79,462.13ZM72.85,460a4.41,4.41,0,0,0-.23-1.09,3,3,0,0,0-.52-.91,2.53,2.53,0,0,0-.81-.63,2.45,2.45,0,0,0-1.11-.23,2.29,2.29,0,0,0-1,.22,2.45,2.45,0,0,0-.83.6,3,3,0,0,0-.58.9,3.82,3.82,0,0,0-.29,1.14Z"></path><path class="cls-1" d="M76.45,464.66V452.78H77.7v11.88Z"></path><path class="cls-1" d="M85,456.28v1.07H82.33v7.31H81.08v-7.31H79.93v-1.09h1.15v-.73a3,3,0,0,1,.66-2.1,2.44,2.44,0,0,1,1.88-.71,4.15,4.15,0,0,1,.75,0,2.78,2.78,0,0,1,.63.16V454c-.23-.07-.43-.12-.62-.16a3.64,3.64,0,0,0-.6-.05c-1,0-1.46.59-1.46,1.79v.68Z"></path><path class="cls-1" d="M86.24,460.43v-1.32h4.52v1.32Z"></path><path class="cls-1" d="M99,464.39a4,4,0,0,1-2,.46,4.06,4.06,0,0,1-1.71-.35,4.4,4.4,0,0,1-1.37-.94,4.5,4.5,0,0,1-.9-1.39,4.52,4.52,0,0,1,0-3.39,4.48,4.48,0,0,1,.9-1.41,4.26,4.26,0,0,1,1.37-.95,4.22,4.22,0,0,1,1.71-.35,5.15,5.15,0,0,1,1.09.11,4,4,0,0,1,.9.32,4.79,4.79,0,0,1,.75.48,5.86,5.86,0,0,1,.63.59l-.83.87a6.22,6.22,0,0,0-1.1-.89,2.65,2.65,0,0,0-1.45-.38,2.8,2.8,0,0,0-1.19.26,2.87,2.87,0,0,0-1,.69,3.33,3.33,0,0,0-.63,1,3.38,3.38,0,0,0-.23,1.28,3.63,3.63,0,0,0,.23,1.28,3.33,3.33,0,0,0,.65,1,3.09,3.09,0,0,0,1,.7,2.91,2.91,0,0,0,1.23.25,3,3,0,0,0,1.44-.35,4.87,4.87,0,0,0,1.13-.9l.8.75A6,6,0,0,1,99,464.39Z"></path><path class="cls-1" d="M108.47,456.25h1.24v8.41h-1.24v-1.47a3.86,3.86,0,0,1-1.11,1.17,3,3,0,0,1-1.77.48,3.62,3.62,0,0,1-1.36-.25,2.84,2.84,0,0,1-1-.69,3.16,3.16,0,0,1-.63-1.07,3.92,3.92,0,0,1-.22-1.36v-5.22h1.25v4.91a2.69,2.69,0,0,0,.6,1.85,2.19,2.19,0,0,0,1.73.69,2.74,2.74,0,0,0,1-.19,2.18,2.18,0,0,0,.8-.54,2.6,2.6,0,0,0,.52-.83,2.92,2.92,0,0,0,.2-1.08Z"></path><path class="cls-1" d="M118.06,463.36a2.35,2.35,0,0,1-.64.79,2.82,2.82,0,0,1-.94.5,4.05,4.05,0,0,1-1.18.17,5.46,5.46,0,0,1-1.84-.33,5.92,5.92,0,0,1-1.64-.91l.63-.89a5.65,5.65,0,0,0,1.43.8,4.31,4.31,0,0,0,1.49.27,2.06,2.06,0,0,0,1.25-.36,1.14,1.14,0,0,0,.49-1v0a.89.89,0,0,0-.17-.54,1.56,1.56,0,0,0-.47-.4,4.2,4.2,0,0,0-.67-.3c-.26-.09-.52-.17-.79-.24l-1-.32a4.59,4.59,0,0,1-.89-.43,2.24,2.24,0,0,1-.65-.65,1.76,1.76,0,0,1-.25-1v0a2.21,2.21,0,0,1,.8-1.75,2.94,2.94,0,0,1,.91-.49,3.85,3.85,0,0,1,1.15-.17,5.48,5.48,0,0,1,1.58.25,6,6,0,0,1,1.44.68l-.56.94a5.35,5.35,0,0,0-1.23-.59,3.8,3.8,0,0,0-1.26-.22,1.87,1.87,0,0,0-1.19.35,1.07,1.07,0,0,0-.44.87v0a.76.76,0,0,0,.18.51,1.58,1.58,0,0,0,.48.39,5.74,5.74,0,0,0,.69.29l.81.26c.33.1.65.2,1,.32a3.61,3.61,0,0,1,.87.46,2.23,2.23,0,0,1,.63.67,1.89,1.89,0,0,1,.23,1v0A2.39,2.39,0,0,1,118.06,463.36Z"></path><path class="cls-1" d="M122.15,462.27a1.32,1.32,0,0,0,.39,1.09,1.63,1.63,0,0,0,1,.3,2.93,2.93,0,0,0,.61-.06,2.43,2.43,0,0,0,.61-.23v1.07a2.61,2.61,0,0,1-.69.27,3.43,3.43,0,0,1-.82.09,3.14,3.14,0,0,1-.94-.13,1.81,1.81,0,0,1-.76-.41,2,2,0,0,1-.5-.74,3,3,0,0,1-.17-1.09v-5.08h-1.18v-1.1h1.18v-2.54h1.25v2.54h2.66v1.1h-2.66Z"></path><path class="cls-1" d="M134.7,462.14a4.53,4.53,0,0,1-.92,1.41,4.39,4.39,0,0,1-3.16,1.3,4.16,4.16,0,0,1-1.74-.35,4.44,4.44,0,0,1-1.38-.94,4.19,4.19,0,0,1-.91-1.39,4.52,4.52,0,0,1,0-3.39,4.17,4.17,0,0,1,.91-1.41,4.24,4.24,0,0,1,1.39-.95,4.42,4.42,0,0,1,1.76-.35,4.39,4.39,0,0,1,3.14,1.29,4.19,4.19,0,0,1,.91,1.39,4.52,4.52,0,0,1,0,3.39Zm-1.19-2.95a3.34,3.34,0,0,0-.66-1.05,3.2,3.2,0,0,0-1-.71,3,3,0,0,0-1.24-.26,3,3,0,0,0-1.25.26,2.82,2.82,0,0,0-1,.69,3.75,3.75,0,0,0-.63,1,3.59,3.59,0,0,0-.22,1.28,3.63,3.63,0,0,0,.23,1.28,3.45,3.45,0,0,0,.65,1,3.15,3.15,0,0,0,1,.69,2.83,2.83,0,0,0,1.23.26,3,3,0,0,0,1.26-.25,3,3,0,0,0,1-.69,3.26,3.26,0,0,0,.64-1,3.53,3.53,0,0,0,.22-1.27A3.59,3.59,0,0,0,133.51,459.19Z"></path><path class="cls-1" d="M144,464.66V463a6.53,6.53,0,0,1-.58.72,3.7,3.7,0,0,1-.71.6,3.17,3.17,0,0,1-.87.41,3.53,3.53,0,0,1-1.06.15,3.8,3.8,0,0,1-1.48-.3,3.91,3.91,0,0,1-1.29-.85,4.2,4.2,0,0,1-.91-1.38,5.2,5.2,0,0,1,0-3.7,4.2,4.2,0,0,1,.91-1.38,4.11,4.11,0,0,1,1.29-.86,3.8,3.8,0,0,1,1.48-.3,3.59,3.59,0,0,1,1.07.15,3.06,3.06,0,0,1,.88.39,3.89,3.89,0,0,1,.71.56,5.13,5.13,0,0,1,.56.69v-5.08h1.25v11.88Zm-.2-5.54a3.06,3.06,0,0,0-.69-1,3.21,3.21,0,0,0-1-.66,3,3,0,0,0-2.29,0,2.48,2.48,0,0,0-.93.63,2.91,2.91,0,0,0-.64,1,3.88,3.88,0,0,0-.23,1.36,3.82,3.82,0,0,0,.23,1.35,3.26,3.26,0,0,0,.64,1,2.91,2.91,0,0,0,2.09.88,2.8,2.8,0,0,0,1.13-.24,3,3,0,0,0,1-.65,3.11,3.11,0,0,0,.69-1,3.63,3.63,0,0,0,.25-1.34A3.53,3.53,0,0,0,143.84,459.12Z"></path><path class="cls-1" d="M152.19,464.93a4.64,4.64,0,0,1-1.2,1.84,2.44,2.44,0,0,1-1.6.54,3.85,3.85,0,0,1-.94-.11,3.52,3.52,0,0,1-.85-.32l.42-1a2.75,2.75,0,0,0,.61.24,3,3,0,0,0,.71.07,1.39,1.39,0,0,0,1-.34,3.31,3.31,0,0,0,.76-1.24l-3.82-8.37h1.39l3.05,7,2.7-7h1.34Z"></path><path class="cls-3" d="M301.45,45.11a18.8,18.8,0,1,1-16.63-10h.48a18.73,18.73,0,0,1,10.56,3.57L298,35.25a22.92,22.92,0,1,0-13.78,41.67h.58a22.89,22.89,0,0,0,19-35.66Z"></path><polygon class="cls-3" points="276.57 48.58 273.24 50.92 284.92 67.59 309.79 28.02 306.35 25.85 284.73 60.23 276.57 48.58"></polygon><path class="cls-4" d="M252.45,500.74v-9.18h6a15.85,15.85,0,0,1,1.23-2.95l-4.26-4.26,6.49-6.5,4.27,4.27a15.15,15.15,0,0,1,2.94-1.24v-6h9.19v6a15.15,15.15,0,0,1,2.94,1.24l4.27-4.27,6.49,6.5-4.26,4.26a15.85,15.85,0,0,1,1.23,2.95h6v9.18h-6a15.85,15.85,0,0,1-1.23,2.95L292,508l-6.49,6.5-4.27-4.27a15.42,15.42,0,0,1-2.94,1.24v6h-9.19v-6a15.42,15.42,0,0,1-2.94-1.24l-4.27,4.27-6.49-6.5,4.26-4.26a16.14,16.14,0,0,1-1.23-2.95Zm3.23-5.95v2.72H261l.27,1.28a12.59,12.59,0,0,0,1.78,4.27l.72,1.1L260,508l1.92,1.92,3.8-3.79,1.09.72a12.76,12.76,0,0,0,4.27,1.78l1.28.28v5.34h2.72v-5.34l1.28-.28a12.59,12.59,0,0,0,4.27-1.78l1.1-.72,3.8,3.79,1.92-1.92-3.79-3.79.71-1.1a12.61,12.61,0,0,0,1.79-4.27l.27-1.28h5.34v-2.72h-5.34l-.27-1.28a12.61,12.61,0,0,0-1.79-4.27l-.72-1.1,3.8-3.79-1.92-1.93-3.8,3.8-1.1-.72a12.73,12.73,0,0,0-4.27-1.79l-1.28-.27V478.1h-2.72v5.34l-1.27.27a12.86,12.86,0,0,0-4.28,1.79l-1.09.72-3.8-3.8L260,484.35l3.79,3.79-.72,1.1a12.59,12.59,0,0,0-1.78,4.27l-.27,1.28Z"></path><rect class="cls-4" x="265.73" y="488.14" width="16.02" height="16.02" rx="3.99" transform="translate(769.88 222.42) rotate(90)"></rect><path class="cls-4" d="M293,472.45v-5.68h3.72a10,10,0,0,1,.76-1.82l-2.63-2.64,4-4,2.64,2.64a9.69,9.69,0,0,1,1.83-.76v-3.73H309v3.73a9.34,9.34,0,0,1,1.82.76l2.64-2.64,4,4L314.86,465a9.34,9.34,0,0,1,.76,1.82h3.72v5.68h-3.72a9.69,9.69,0,0,1-.76,1.83l2.64,2.63-4,4-2.64-2.64a9.38,9.38,0,0,1-1.82.77v3.72h-5.68v-3.72a9.73,9.73,0,0,1-1.83-.77l-2.64,2.64-4-4,2.63-2.63a10.4,10.4,0,0,1-.76-1.83Zm2-3.68v1.68h3.31l.16.79a7.71,7.71,0,0,0,1.11,2.65l.44.68-2.34,2.34,1.18,1.19,2.35-2.34.68.44a7.92,7.92,0,0,0,2.64,1.1l.8.17v3.31H307v-3.31l.79-.17a7.92,7.92,0,0,0,2.64-1.1l.68-.44,2.35,2.34,1.19-1.19-2.35-2.34.45-.68a7.89,7.89,0,0,0,1.1-2.65l.17-.79h3.3v-1.68H314l-.17-.79a7.76,7.76,0,0,0-1.1-2.64l-.45-.68,2.35-2.35-1.19-1.19-2.35,2.35-.68-.45a7.84,7.84,0,0,0-2.64-1.1l-.79-.17v-3.31h-1.68v3.31l-.79.17a7.89,7.89,0,0,0-2.65,1.1l-.68.45-2.35-2.35-1.18,1.19,2.34,2.35-.44.68a7.66,7.66,0,0,0-1.11,2.64l-.16.79Z"></path><rect class="cls-4" x="301.22" y="464.66" width="9.91" height="9.91" rx="2.47" transform="translate(775.79 163.43) rotate(90)"></rect><path class="cls-4" d="M272.73,473.66v-4h2v4Zm3-3v-2h4v2Zm6,0v-2h4v2Zm6,0v-2h4v2Z"></path><polygon class="cls-5" points="478.8 440.39 465.54 427.13 478.67 414 481.58 416.92 471.37 427.13 481.71 437.48 478.8 440.39"></polygon><polygon class="cls-5" points="504.86 440.39 501.95 437.48 512.16 427.27 501.81 416.92 504.72 414 517.99 427.27 504.86 440.39"></polygon><rect class="cls-5" x="471.17" y="425.34" width="41.32" height="4.12" transform="translate(-93.77 713.14) rotate(-67)"></rect><path class="cls-5" d="M115.83,157.9H95.9a5.07,5.07,0,0,1-5.06-5.06V132.91a5.07,5.07,0,0,1,5.06-5.06h1.39v3.89H95.9a1.18,1.18,0,0,0-1.17,1.17v19.93A1.18,1.18,0,0,0,95.9,154h19.93a1.17,1.17,0,0,0,1.17-1.17V132.91a1.17,1.17,0,0,0-1.17-1.17h-1.38v-3.89h1.38a5.07,5.07,0,0,1,5.07,5.06v19.93A5.07,5.07,0,0,1,115.83,157.9Z"></path><path class="cls-5" d="M114.45,131.74h-19L95.35,130a6.14,6.14,0,0,1-.09-.89v-6.34a10.61,10.61,0,1,1,21.21,0v6.34a5.51,5.51,0,0,1-.06.71l-.15,1.79Zm-15.29-3.89h13.41v-5.12a6.71,6.71,0,1,0-13.41,0Z"></path><path class="cls-6" d="M109.46,140.12a3.59,3.59,0,1,0-5.8,2.82l-.88,6.94H109l-.88-6.94A3.58,3.58,0,0,0,109.46,140.12Z"></path><path class="cls-5" d="M90.93,145.7H79.22a3.29,3.29,0,0,1-3.29-3.29V130.7a3.29,3.29,0,0,1,3.29-3.29H80v2.92h-.81a.37.37,0,0,0-.37.37v11.71a.37.37,0,0,0,.37.37H90.93a.38.38,0,0,0,.37-.37V130.7a.38.38,0,0,0-.37-.37h-.82v-2.92h.82a3.3,3.3,0,0,1,3.29,3.29v11.71A3.3,3.3,0,0,1,90.93,145.7Z"></path><path class="cls-5" d="M90.11,130.33H78.69L78.58,129a3.19,3.19,0,0,1,0-.56v-3.72a6.55,6.55,0,1,1,13.09,0v3.72a3.57,3.57,0,0,1,0,.47l-.18,1.26Zm-8.66-2.92H88.7v-2.69a3.63,3.63,0,1,0-7.25,0Z"></path><path class="cls-6" d="M87.18,134.94a2.11,2.11,0,0,0-4.22,0,2,2,0,0,0,.82,1.62l-.52,4.11h3.62l-.52-4.11A2,2,0,0,0,87.18,134.94Z"></path><path class="cls-5" d="M132.49,145.7H120.78a3.29,3.29,0,0,1-3.29-3.29V130.7a3.29,3.29,0,0,1,3.29-3.29h.81v2.92h-.81a.37.37,0,0,0-.37.37v11.71a.37.37,0,0,0,.37.37h11.71a.38.38,0,0,0,.37-.37V130.7a.38.38,0,0,0-.37-.37h-.82v-2.92h.82a3.3,3.3,0,0,1,3.29,3.29v11.71A3.3,3.3,0,0,1,132.49,145.7Z"></path><path class="cls-5" d="M131.67,130.33H120.25l-.11-1.33a3.19,3.19,0,0,1,0-.56v-3.72a6.55,6.55,0,1,1,13.09,0v3.72a3.42,3.42,0,0,1,0,.46l-.17,1.27ZM123,127.41h7.25v-2.69a3.63,3.63,0,1,0-7.25,0Z"></path><path class="cls-6" d="M128.74,134.94a2.11,2.11,0,0,0-4.22,0,2,2,0,0,0,.82,1.62l-.52,4.11h3.62l-.52-4.11A2,2,0,0,0,128.74,134.94Z"></path><path class="cls-7" d="M124.19,164.59h-2v-1.94h2Zm-5.84,0H116.4v-1.94h1.95Zm-5.85,0h-1.94v-1.94h1.94Zm-5.84,0h-2v-1.94h2Zm-5.84,0H98.87v-1.94h1.95Zm-5.85,0H93v-1.94h2Zm-5.84,0H87.18v-1.94h1.95Z"></path><path class="cls-7" d="M86.05,161.77h-2v-2h2Zm0-3.9h-2v-1.94h2Zm0-3.89h-2V152h2Zm0-3.9h-2v-2h2Zm0-3.89h-2v-1.95h2Z"></path><path class="cls-7" d="M127.61,161.77h-2v-2h2Zm0-3.9h-2v-1.94h2Zm0-3.89h-2V152h2Zm0-3.9h-2v-2h2Zm0-3.89h-2v-1.95h2Z"></path><path class="cls-7" d="M109.46,405.07a11,11,0,1,1,11-11A11,11,0,0,1,109.46,405.07Zm0-18.77a7.73,7.73,0,1,0,7.73,7.73A7.74,7.74,0,0,0,109.46,386.3Z"></path><path class="cls-7" d="M126.81,422.82c-.59-5.48-5.15-12.1-9.93-12.1H102c-4.83,0-9.43,6.62-10,12.1l-3.29-.35c.68-6.29,6.06-15.06,13.31-15.06h14.84c7.19,0,12.55,8.77,13.22,15.06Z"></path><polygon class="cls-7" points="109.46 427.88 107.86 426.19 97.21 414.86 97.21 421.54 86.52 421.54 86.52 425.04 100.5 425.04 100.5 423.3 105.02 427.88 100.5 432.46 100.5 430.72 86.52 430.72 86.52 434.22 97.21 434.22 97.21 440.9 107.86 429.57 109.46 427.88"></polygon><polygon class="cls-7" points="109.46 427.88 111.05 429.57 121.7 440.9 121.7 434.22 132.39 434.22 132.39 430.72 118.41 430.72 118.41 432.46 113.89 427.88 118.41 423.3 118.41 425.04 132.39 425.04 132.39 421.54 121.7 421.54 121.7 414.86 111.05 426.19 109.46 427.88"></polygon><path d="M482.8,545.24h1.66v11.1H491l-.23,1.43h-8Z"></path><path d="M493.62,553.48c0,1.86.95,3.19,2.5,3.19a2.11,2.11,0,0,0,2.2-1.42h1.6a3.72,3.72,0,0,1-3.85,2.73c-2.86,0-4-2.34-4-4.68,0-2.72,1.37-4.88,4.15-4.88,2.95,0,3.9,2.36,3.9,4.31,0,.28,0,.52,0,.75Zm4.86-1.1c0-1.51-.77-2.72-2.32-2.72s-2.32,1.12-2.49,2.72Z"></path><path d="M503.14,553.48c0,1.86,1,3.19,2.5,3.19a2.11,2.11,0,0,0,2.2-1.42h1.6a3.72,3.72,0,0,1-3.85,2.73c-2.86,0-4-2.34-4-4.68,0-2.72,1.36-4.88,4.14-4.88,2.95,0,3.91,2.36,3.91,4.31,0,.28,0,.52,0,.75Zm4.86-1.1c0-1.51-.77-2.72-2.32-2.72s-2.32,1.12-2.48,2.72Z"></path><path d="M512.43,548.64c1.13,4.28,1.78,6.73,1.94,7.67h0c.16-.85.81-3.13,2.11-7.67h1.55c1.42,5.17,1.85,6.66,2,7.49h0c.24-1,.6-2.34,2-7.49h1.6l-2.81,9.13h-1.71c-.88-3.33-1.76-6.41-2-7.4h0c-.16,1-1,3.78-2,7.4h-1.76l-2.65-9.13Z"></path><path d="M531.92,555.77a14.61,14.61,0,0,0,.13,2h-1.51a4.84,4.84,0,0,1-.15-1.19,2.9,2.9,0,0,1-2.82,1.4,2.76,2.76,0,0,1-3.08-2.79c0-2,1.6-3,4.32-3h1.55v-.77c0-.81-.25-1.78-2-1.78-1.51,0-1.78.75-1.94,1.45h-1.53c.13-1.26.9-2.7,3.53-2.7,2.23,0,3.47.92,3.47,3Zm-1.54-2.45H528.9c-1.82,0-2.79.5-2.79,1.78a1.6,1.6,0,0,0,1.78,1.64c2.2,0,2.49-1.48,2.49-3.13v-.29Z"></path><path d="M535.07,548.64c1.48,4.37,2.29,6.79,2.54,7.72h0c.29-1,.94-3.13,2.43-7.72h1.59l-3.28,9.54c-.92,2.68-1.62,3.35-3.48,3.35-.28,0-.63,0-1,0v-1.37c.24,0,.51,0,.76,0,1.15,0,1.58-.5,2.12-2l-3.42-9.49Z"></path><path d="M543.64,545.24h1.66v5.23h6.52v-5.23h1.67v12.53h-1.67V551.9H545.3v5.87h-1.66Z"></path><path d="M557.32,553.48c0,1.86,1,3.19,2.5,3.19a2.11,2.11,0,0,0,2.2-1.42h1.6a3.72,3.72,0,0,1-3.85,2.73c-2.86,0-4-2.34-4-4.68,0-2.72,1.36-4.88,4.14-4.88,3,0,3.91,2.36,3.91,4.31,0,.28,0,.52,0,.75Zm4.86-1.1c0-1.51-.77-2.72-2.32-2.72s-2.32,1.12-2.48,2.72Z"></path><path d="M565.8,551.12c0-1.27,0-2,0-2.48h1.55c0,.25,0,1,0,1.85a3.2,3.2,0,0,1,3.06-2.07V550c-1.87,0-3.06,1-3.06,3.35v4.43H565.8v-6.65Z"></path><path d="M571.45,548.64H573v-2.7h1.57v2.7h2v1.28h-2v5.34c0,.9.22,1.36,1,1.36a3.87,3.87,0,0,0,.8-.08v1.19a4.06,4.06,0,0,1-1.37.16c-1.42,0-2-.74-2-2.25v-5.72h-1.58Z"></path><path d="M577.88,556.49l5.25-6.52h-5v-1.33h6.78V550l-5.18,6.48h5.44l-.26,1.34h-7.06v-1.28Z"></path><line class="cls-8" x1="287.45" y1="274.26" x2="411.34" y2="163.41"></line><rect class="cls-9" x="266.73" y="219.03" width="162.67" height="2" transform="translate(-58.03 288.23) rotate(-41.83)"></rect><path class="cls-9" d="M411.05,168.72a3.76,3.76,0,1,0-5.31-.29A3.76,3.76,0,0,0,411.05,168.72Z"></path><line class="cls-8" x1="287.45" y1="274.26" x2="286.76" y2="109.85"></line><rect class="cls-9" x="286.11" y="113.42" width="2" height="160.85" transform="translate(-0.81 1.2) rotate(-0.24)"></rect><path class="cls-9" d="M290.53,113.59a3.76,3.76,0,1,0-3.74,3.78A3.75,3.75,0,0,0,290.53,113.59Z"></path><line class="cls-8" x1="287.45" y1="274.26" x2="148.91" y2="165.91"></line><rect class="cls-9" x="218.58" y="135.03" width="2" height="172.31" transform="translate(-89.92 257.88) rotate(-51.97)"></rect><path class="cls-9" d="M154.19,165.26a3.76,3.76,0,1,0,.64,5.28A3.76,3.76,0,0,0,154.19,165.26Z"></path><line class="cls-8" x1="287.45" y1="274.26" x2="148.91" y2="400.51"></line><rect class="cls-9" x="127.57" y="335.18" width="183.86" height="2" transform="translate(-169.15 235.45) rotate(-42.33)"></rect><path class="cls-9" d="M149.16,395.2a3.76,3.76,0,1,0,5.31.24A3.75,3.75,0,0,0,149.16,395.2Z"></path><line class="cls-8" x1="287.45" y1="274.26" x2="288.34" y2="441.12"></line><rect class="cls-9" x="286.89" y="274.26" width="2" height="163.29" transform="translate(-1.91 1.56) rotate(-0.31)"></rect><path class="cls-9" d="M284.56,437.38a3.76,3.76,0,1,0,3.74-3.78A3.76,3.76,0,0,0,284.56,437.38Z"></path><line class="cls-8" x1="287.45" y1="274.26" x2="460.75" y2="398.31"></line><rect class="cls-9" x="371.65" y="230.47" width="2" height="209.56" transform="translate(-116.86 443.14) rotate(-54.41)"></rect><path class="cls-9" d="M455.51,399.18a3.76,3.76,0,1,0-.87-5.24A3.75,3.75,0,0,0,455.51,399.18Z"></path><rect class="cls-8" x="135.05" y="191.83" width="304.79" height="164.87" rx="81.1"></rect><path class="cls-9" d="M358.74,357.7H216.15a82.19,82.19,0,0,1-82.1-82.1v-2.68a82.19,82.19,0,0,1,82.1-82.09H358.74a82.19,82.19,0,0,1,82.1,82.09v2.68A82.19,82.19,0,0,1,358.74,357.7ZM216.15,192.83a80.19,80.19,0,0,0-80.1,80.09v2.68a80.19,80.19,0,0,0,80.1,80.1H358.74a80.19,80.19,0,0,0,80.1-80.1v-2.68a80.19,80.19,0,0,0-80.1-80.09Z"></path><path class="cls-9" d="M184.55,284.13h-9.71v-20.4h9.47c4.17,0,6.74,2.07,6.74,5.27v.06a4.76,4.76,0,0,1-2.68,4.4c2.36.9,3.81,2.27,3.81,5v.06C192.18,282.26,189.15,284.13,184.55,284.13Zm2-14.37c0-1.34-1.05-2.1-3-2.1h-4.43V272h4.14c2,0,3.24-.64,3.24-2.15Zm1.13,8.16c0-1.37-1-2.22-3.32-2.22h-5.19v4.49h5.34c2,0,3.17-.7,3.17-2.21Z"></path><path class="cls-9" d="M209.93,277.86H199.06a3.61,3.61,0,0,0,3.81,3.06,5.09,5.09,0,0,0,3.79-1.6l2.54,2.24a8.25,8.25,0,0,1-14.54-5.16v0c0-4.46,3.17-8.14,7.72-8.14,5.22,0,7.61,4.06,7.61,8.49v.05C210,277.19,210,277.45,209.93,277.86Zm-7.55-6.09c-1.84,0-3,1.31-3.38,3.32h6.67C205.41,273.11,204.24,271.77,202.38,271.77Z"></path><path class="cls-9" d="M223.16,284.13v-8.72c0-2.09-1-3.17-2.69-3.17s-2.76,1.08-2.76,3.17v8.72h-4.43V268.51h4.43v2.21a5.53,5.53,0,0,1,4.57-2.51c3.35,0,5.31,2.22,5.31,5.8v10.12Z"></path><path class="cls-9" d="M245.94,277.86H235.07a3.63,3.63,0,0,0,3.82,3.06,5.11,5.11,0,0,0,3.79-1.6l2.53,2.24a8.25,8.25,0,0,1-14.54-5.16v0c0-4.46,3.18-8.14,7.72-8.14,5.22,0,7.61,4.06,7.61,8.49v.05C246,277.19,246,277.45,245.94,277.86Zm-7.55-6.09c-1.83,0-3,1.31-3.38,3.32h6.68C241.43,273.11,240.26,271.77,238.39,271.77Z"></path><path class="cls-9" d="M256,266.38c-1,0-1.6.52-1.6,1.69v.61H258v3.62h-3.52v11.83h-4.43V272.3h-1.84v-3.65h1.84v-1c0-3.44,1.72-5,4.84-5a9.5,9.5,0,0,1,3.14.44v3.67A5.45,5.45,0,0,0,256,266.38Z"></path><path class="cls-9" d="M260.51,266.79v-3.94h4.66v3.94Zm.12,17.34V268.51h4.43v15.62Z"></path><path class="cls-9" d="M274.5,284.39c-2.71,0-4.55-1.08-4.55-4.69v-7.4h-1.87v-3.79H270v-4h4.43v4h3.67v3.79h-3.67V279c0,1,.44,1.51,1.43,1.51a4.49,4.49,0,0,0,2.18-.55v3.56A6.55,6.55,0,0,1,274.5,284.39Z"></path><path class="cls-9" d="M286.79,284.42a11,11,0,0,1-6.7-2.36l1.89-2.92a8.8,8.8,0,0,0,4.93,1.87c1.28,0,1.86-.47,1.86-1.17v0c0-1-1.51-1.29-3.23-1.81-2.19-.64-4.66-1.66-4.66-4.69v-.06c0-3.18,2.56-5,5.71-5a10.79,10.79,0,0,1,5.83,1.81l-1.69,3.06a9.33,9.33,0,0,0-4.23-1.46c-1.08,0-1.63.47-1.63,1.08v.06c0,.87,1.49,1.28,3.18,1.86,2.18.73,4.72,1.78,4.72,4.64v.06C292.77,282.85,290.17,284.42,286.79,284.42Z"></path><path class="cls-9" d="M312.35,284.48a8.12,8.12,0,0,1-8.42-8.08v0a8.46,8.46,0,0,1,16.9-.06v.06A8.21,8.21,0,0,1,312.35,284.48Zm4.11-8.13a4.15,4.15,0,0,0-4.11-4.32,4,4,0,0,0-4.05,4.26v.06a4.15,4.15,0,0,0,4.11,4.31,4,4,0,0,0,4-4.26Z"></path><path class="cls-9" d="M330.76,266.38c-1,0-1.6.52-1.6,1.69v.61h3.58v3.62h-3.52v11.83h-4.43V272.3H323v-3.65h1.84v-1c0-3.44,1.72-5,4.84-5a9.5,9.5,0,0,1,3.14.44v3.67A5.45,5.45,0,0,0,330.76,266.38Z"></path><path class="cls-9" d="M352.33,284.13h-8v-20.4h8c6.41,0,10.84,4.4,10.84,10.14v.06C363.17,279.67,358.74,284.13,352.33,284.13Zm6.14-10.2a5.85,5.85,0,0,0-6.14-6.15h-3.47v12.3h3.47a5.81,5.81,0,0,0,6.14-6.09Z"></path><path class="cls-9" d="M381.2,277.86H370.33a3.63,3.63,0,0,0,3.82,3.06,5.09,5.09,0,0,0,3.79-1.6l2.53,2.24a8.25,8.25,0,0,1-14.54-5.16v0c0-4.46,3.18-8.14,7.73-8.14,5.21,0,7.6,4.06,7.6,8.49v.05C381.26,277.19,381.23,277.45,381.2,277.86Zm-7.54-6.09c-1.84,0-3,1.31-3.39,3.32H377C376.69,273.11,375.52,271.77,373.66,271.77Z"></path><path class="cls-9" d="M391.28,266.38c-1,0-1.6.52-1.6,1.69v.61h3.59v3.62h-3.53v11.83h-4.43V272.3h-1.84v-3.65h1.84v-1c0-3.44,1.72-5,4.84-5a9.61,9.61,0,0,1,3.15.44v3.67A5.54,5.54,0,0,0,391.28,266.38Z"></path><path class="cls-9" d="M395.77,266.79v-3.94h4.66v3.94Zm.12,17.34V268.51h4.43v15.62Z"></path><path class="cls-1" d="M236.85,89.85a3.32,3.32,0,0,1-1,1.17,4.17,4.17,0,0,1-1.43.71,6,6,0,0,1-1.72.23H230v4h-1.28V84.6H233a5.69,5.69,0,0,1,1.75.25,4.22,4.22,0,0,1,1.35.71,3.13,3.13,0,0,1,.86,1.14,3.72,3.72,0,0,1,.3,1.52A3.53,3.53,0,0,1,236.85,89.85Zm-1.76-3.44a3.64,3.64,0,0,0-2.23-.63H230v5h2.83a4.35,4.35,0,0,0,1.28-.18,3.09,3.09,0,0,0,1-.51,2.25,2.25,0,0,0,.64-.8,2.43,2.43,0,0,0,.22-1A2.18,2.18,0,0,0,235.09,86.41Z"></path><path class="cls-1" d="M240.35,93.45a3,3,0,0,0,.67.9,2.74,2.74,0,0,0,.91.55,3.11,3.11,0,0,0,1.06.19,3.19,3.19,0,0,0,1.5-.33,4.49,4.49,0,0,0,1.15-.86l.78.7A5.3,5.3,0,0,1,245,95.75a4.35,4.35,0,0,1-2,.43,4.22,4.22,0,0,1-1.62-.32A4,4,0,0,1,240,95a4.09,4.09,0,0,1-.91-1.39,4.5,4.5,0,0,1-.34-1.79,4.88,4.88,0,0,1,.3-1.71,4.28,4.28,0,0,1,.84-1.4,3.7,3.7,0,0,1,1.28-.93,3.76,3.76,0,0,1,1.61-.35,3.82,3.82,0,0,1,1.66.35,3.77,3.77,0,0,1,1.24,1,4.13,4.13,0,0,1,.76,1.42,5.47,5.47,0,0,1,.26,1.74V92a1.62,1.62,0,0,1,0,.21H240A3.42,3.42,0,0,0,240.35,93.45Zm5.06-2.14a4,4,0,0,0-.24-1.09,2.89,2.89,0,0,0-.51-.91,2.37,2.37,0,0,0-.81-.62,2.45,2.45,0,0,0-1.11-.24,2.37,2.37,0,0,0-1,.22,2.84,2.84,0,0,0-.82.6,3.23,3.23,0,0,0-.58.9,3.82,3.82,0,0,0-.29,1.14Z"></path><path class="cls-1" d="M250.14,96h-1.25V87.57h1.25v2.2a4.2,4.2,0,0,1,.57-1,4,4,0,0,1,.78-.76,3.32,3.32,0,0,1,1-.48,3.41,3.41,0,0,1,1.12-.14v1.35h-.09a3.53,3.53,0,0,0-1.3.24,3,3,0,0,0-1.06.73A3.54,3.54,0,0,0,250.4,91a5,5,0,0,0-.26,1.67Z"></path><path class="cls-1" d="M262.66,88.42a3,3,0,0,1,.64-.54,3.42,3.42,0,0,1,.8-.36,3.92,3.92,0,0,1,1-.13,2.93,2.93,0,0,1,2.29.91,3.52,3.52,0,0,1,.83,2.48V96H267V91.07a2.8,2.8,0,0,0-.58-1.88,2,2,0,0,0-1.6-.66,2.44,2.44,0,0,0-.9.17,2.23,2.23,0,0,0-.74.51,2.31,2.31,0,0,0-.5.82,2.92,2.92,0,0,0-.19,1.1V96h-1.24V91a2.75,2.75,0,0,0-.57-1.85,2,2,0,0,0-1.59-.66,2.22,2.22,0,0,0-.93.2,2.31,2.31,0,0,0-.74.55,2.69,2.69,0,0,0-.49.84,3,3,0,0,0-.18,1.06V96h-1.25V87.57h1.25V89a5.3,5.3,0,0,1,.46-.6,2.88,2.88,0,0,1,.58-.52,3.29,3.29,0,0,1,.73-.35,3.36,3.36,0,0,1,.95-.13,2.84,2.84,0,0,1,1.69.48,3,3,0,0,1,1,1.2A5.49,5.49,0,0,1,262.66,88.42Z"></path><path class="cls-1" d="M271,85.73V84.35h1.43v1.38ZM271.06,96V87.57h1.25V96Z"></path><path class="cls-1" d="M280.76,94.69a2.45,2.45,0,0,1-.64.79,2.8,2.8,0,0,1-.94.49,3.74,3.74,0,0,1-1.18.17,5.46,5.46,0,0,1-1.84-.33,5.79,5.79,0,0,1-1.64-.9l.64-.9a5.31,5.31,0,0,0,1.42.8,4.32,4.32,0,0,0,1.49.28,2.06,2.06,0,0,0,1.25-.36,1.16,1.16,0,0,0,.49-1v0a.91.91,0,0,0-.17-.54,1.53,1.53,0,0,0-.47-.39,3.47,3.47,0,0,0-.67-.31l-.79-.24c-.33-.1-.65-.2-1-.32a3.57,3.57,0,0,1-.9-.43,2.12,2.12,0,0,1-.65-.65,1.73,1.73,0,0,1-.25-1v0a2.3,2.3,0,0,1,.21-1,2.33,2.33,0,0,1,.59-.77,2.73,2.73,0,0,1,.91-.48,3.6,3.6,0,0,1,1.15-.17,5.16,5.16,0,0,1,1.58.25,6.2,6.2,0,0,1,1.45.67l-.57,1a5.83,5.83,0,0,0-1.23-.6,4.08,4.08,0,0,0-1.26-.22,1.87,1.87,0,0,0-1.19.35,1.1,1.1,0,0,0-.44.87v0a.79.79,0,0,0,.18.51,1.72,1.72,0,0,0,.48.38,3.67,3.67,0,0,0,.69.29l.81.26c.33.1.65.21,1,.33a4,4,0,0,1,.87.45,2.36,2.36,0,0,1,.63.67,1.8,1.8,0,0,1,.23,1v0A2.31,2.31,0,0,1,280.76,94.69Z"></path><path class="cls-1" d="M288.7,94.69a2.45,2.45,0,0,1-.64.79,2.8,2.8,0,0,1-.94.49,3.78,3.78,0,0,1-1.18.17,5.46,5.46,0,0,1-1.84-.33,5.66,5.66,0,0,1-1.64-.9l.63-.9a5.36,5.36,0,0,0,1.43.8,4.31,4.31,0,0,0,1.48.28,2.09,2.09,0,0,0,1.26-.36,1.15,1.15,0,0,0,.48-1v0a.85.85,0,0,0-.17-.54,1.49,1.49,0,0,0-.46-.39,3.57,3.57,0,0,0-.68-.31l-.78-.24c-.33-.1-.66-.2-1-.32a3.5,3.5,0,0,1-.89-.43,2,2,0,0,1-.65-.65,1.73,1.73,0,0,1-.25-1v0a2.3,2.3,0,0,1,.21-1,2.33,2.33,0,0,1,.59-.77,2.63,2.63,0,0,1,.91-.48,3.55,3.55,0,0,1,1.15-.17,5.1,5.1,0,0,1,1.57.25,5.85,5.85,0,0,1,1.45.67l-.57,1a6,6,0,0,0-1.22-.6,4.08,4.08,0,0,0-1.26-.22,1.87,1.87,0,0,0-1.19.35,1.1,1.1,0,0,0-.44.87v0a.79.79,0,0,0,.18.51,1.72,1.72,0,0,0,.48.38,3.67,3.67,0,0,0,.69.29l.81.26c.33.1.65.21,1,.33a4,4,0,0,1,.87.45,2.36,2.36,0,0,1,.63.67,1.89,1.89,0,0,1,.23,1v0A2.44,2.44,0,0,1,288.7,94.69Z"></path><path class="cls-1" d="M291.29,85.73V84.35h1.43v1.38ZM291.37,96V87.57h1.25V96Z"></path><path class="cls-1" d="M303.45,93.47a4.65,4.65,0,0,1-.92,1.41,4.39,4.39,0,0,1-3.16,1.3,4.33,4.33,0,0,1-1.74-.35,4.47,4.47,0,0,1-1.38-1,4.24,4.24,0,0,1-.91-1.39A4.35,4.35,0,0,1,295,91.8a4.48,4.48,0,0,1,.33-1.7,4.55,4.55,0,0,1,.91-1.41,4.4,4.4,0,0,1,1.39-1,4.47,4.47,0,0,1,1.77-.35,4.34,4.34,0,0,1,3.13,1.3,4.09,4.09,0,0,1,.91,1.39,4.35,4.35,0,0,1,.33,1.69A4.48,4.48,0,0,1,303.45,93.47Zm-1.19-3a3.34,3.34,0,0,0-.66-1.05,3.18,3.18,0,0,0-1-.7,3,3,0,0,0-1.24-.26,3,3,0,0,0-1.25.25,2.84,2.84,0,0,0-1,.7,3.38,3.38,0,0,0-.62,1,3.33,3.33,0,0,0-.23,1.27,3.63,3.63,0,0,0,.23,1.28,3.33,3.33,0,0,0,.65,1,3.18,3.18,0,0,0,1,.7,3,3,0,0,0,1.24.26,3.21,3.21,0,0,0,1.25-.25,3,3,0,0,0,1-.69,3.31,3.31,0,0,0,.64-1,3.59,3.59,0,0,0,.23-1.28A3.43,3.43,0,0,0,302.26,90.51Z"></path><path class="cls-1" d="M307.29,96H306V87.57h1.25V89a3.86,3.86,0,0,1,1.11-1.17,3,3,0,0,1,1.77-.48,3.44,3.44,0,0,1,1.36.25,2.75,2.75,0,0,1,1,.69,3,3,0,0,1,.63,1.06,4,4,0,0,1,.22,1.37V96h-1.25V91.07a2.74,2.74,0,0,0-.6-1.86,2.2,2.2,0,0,0-1.73-.68,2.58,2.58,0,0,0-1,.19,2.18,2.18,0,0,0-.8.54,2.32,2.32,0,0,0-.53.83,3.14,3.14,0,0,0-.19,1.08Z"></path><path class="cls-1" d="M316.17,96V84.11h1.26V96Z"></path><path class="cls-1" d="M321.43,93.45a3,3,0,0,0,.66.9,2.84,2.84,0,0,0,.91.55,3.16,3.16,0,0,0,1.06.19,3.21,3.21,0,0,0,1.51-.33,4.44,4.44,0,0,0,1.14-.86l.78.7a5.11,5.11,0,0,1-1.44,1.15,4.4,4.4,0,0,1-2,.43,4.23,4.23,0,0,1-1.63-.32,4.06,4.06,0,0,1-1.34-.9,4.25,4.25,0,0,1-.91-1.39,4.68,4.68,0,0,1-.33-1.79,4.88,4.88,0,0,1,.3-1.71,4.44,4.44,0,0,1,.83-1.4,3.93,3.93,0,0,1,2.9-1.28,3.85,3.85,0,0,1,1.66.35,3.63,3.63,0,0,1,1.23,1,4.15,4.15,0,0,1,.77,1.42,5.76,5.76,0,0,1,.26,1.74V92a1.83,1.83,0,0,1,0,.21H321.1A3.22,3.22,0,0,0,321.43,93.45Zm5.05-2.14a4.41,4.41,0,0,0-.23-1.09,2.92,2.92,0,0,0-.52-.91,2.47,2.47,0,0,0-1.91-.86,2.31,2.31,0,0,0-1,.22,2.89,2.89,0,0,0-.83.6,3.48,3.48,0,0,0-.58.9,3.82,3.82,0,0,0-.29,1.14Z"></path><path class="cls-1" d="M335.5,94.69a2.42,2.42,0,0,1-.63.79,2.9,2.9,0,0,1-.94.49,3.78,3.78,0,0,1-1.18.17,5.46,5.46,0,0,1-1.84-.33,5.53,5.53,0,0,1-1.64-.9l.63-.9a5.46,5.46,0,0,0,1.42.8,4.36,4.36,0,0,0,1.49.28,2,2,0,0,0,1.25-.36,1.14,1.14,0,0,0,.49-1v0a.91.91,0,0,0-.17-.54,1.49,1.49,0,0,0-.46-.39,3.57,3.57,0,0,0-.68-.31l-.79-.24c-.32-.1-.65-.2-1-.32a3.74,3.74,0,0,1-.9-.43,2.24,2.24,0,0,1-.65-.65,1.81,1.81,0,0,1-.25-1v0a2.3,2.3,0,0,1,.21-1,2.24,2.24,0,0,1,.6-.77,2.63,2.63,0,0,1,.91-.48,3.49,3.49,0,0,1,1.14-.17,5.16,5.16,0,0,1,1.58.25,6,6,0,0,1,1.45.67l-.57,1a5.83,5.83,0,0,0-1.23-.6,4.08,4.08,0,0,0-1.26-.22,1.89,1.89,0,0,0-1.19.35,1.09,1.09,0,0,0-.43.87v0a.85.85,0,0,0,.17.51,1.72,1.72,0,0,0,.48.38,4.09,4.09,0,0,0,.7.29l.81.26c.32.1.65.21,1,.33a4,4,0,0,1,.87.45,2.19,2.19,0,0,1,.62.67,1.8,1.8,0,0,1,.24,1v0A2.31,2.31,0,0,1,335.5,94.69Z"></path><path class="cls-1" d="M343.44,94.69a2.56,2.56,0,0,1-.63.79,2.85,2.85,0,0,1-.95.49,3.7,3.7,0,0,1-1.18.17,5.51,5.51,0,0,1-1.84-.33,5.79,5.79,0,0,1-1.64-.9l.64-.9a5.31,5.31,0,0,0,1.42.8,4.32,4.32,0,0,0,1.49.28,2,2,0,0,0,1.25-.36,1.14,1.14,0,0,0,.49-1v0a.91.91,0,0,0-.17-.54,1.53,1.53,0,0,0-.47-.39,3.47,3.47,0,0,0-.67-.31l-.79-.24c-.32-.1-.65-.2-1-.32a3.74,3.74,0,0,1-.9-.43,2.24,2.24,0,0,1-.65-.65,1.73,1.73,0,0,1-.25-1v0a2.3,2.3,0,0,1,.21-1,2.33,2.33,0,0,1,.59-.77,2.73,2.73,0,0,1,.91-.48,3.6,3.6,0,0,1,1.15-.17,5.16,5.16,0,0,1,1.58.25,6.2,6.2,0,0,1,1.45.67l-.57,1a5.83,5.83,0,0,0-1.23-.6,4.08,4.08,0,0,0-1.26-.22,1.87,1.87,0,0,0-1.19.35,1.1,1.1,0,0,0-.44.87v0a.79.79,0,0,0,.18.51,1.72,1.72,0,0,0,.48.38,3.67,3.67,0,0,0,.69.29c.26.09.53.18.82.26s.64.21,1,.33a4,4,0,0,1,.87.45,2.36,2.36,0,0,1,.63.67,1.8,1.8,0,0,1,.24,1v0A2.31,2.31,0,0,1,343.44,94.69Z"></path></g></svg> 